<?xml version="1.0" encoding="UTF-8" standalone="no"?><!DOCTYPE svg PUBLIC "-//W3C//DTD SVG 1.1//EN" "http://www.w3.org/Graphics/SVG/1.1/DTD/svg11.dtd"><!-- Generated by graphviz version 2.40.1 (20161225.0304)
 --><!-- Title: packages Pages: 1 --><svg xmlns="http://www.w3.org/2000/svg" xmlns:xlink="http://www.w3.org/1999/xlink" width="718pt" height="720pt" viewBox="0.00 0.00 718.16 720.00">
<g id="graph0" class="graph" transform="scale(.9865 .9865) rotate(0) translate(4 725.8701)">
<title>packages</title>
<polygon fill="#ffffff" stroke="transparent" points="-4,4 -4,-725.8701 724,-725.8701 724,4 -4,4"/>
<g id="clust1" class="cluster">
<title>cluster .</title>
<polygon fill="none" stroke="#d9516d" points="9.9654,-18.7013 9.9654,-703.1688 710.0346,-703.1688 710.0346,-18.7013 9.9654,-18.7013"/>
<text text-anchor="middle" x="360" y="-686.5688" font-family="Times,serif" font-size="14.00" fill="#000000">.</text>
</g>
<!-- facades -->
<g id="node1" class="node">
<title>facades</title>
<polygon fill="none" stroke="#4affae" points="383.7733,-433.7013 325.8461,-433.7013 325.8461,-397.7013 383.7733,-397.7013 383.7733,-433.7013"/>
<text text-anchor="middle" x="354.8097" y="-411.5013" font-family="Times,serif" font-size="14.00" fill="#000000">facades</text>
</g>
<!-- google_books_service -->
<g id="node2" class="node">
<title>google_books_service</title>
<polygon fill="none" stroke="#2b9025" points="179.4992,-265.7013 38.1202,-265.7013 38.1202,-229.7013 179.4992,-229.7013 179.4992,-265.7013"/>
<text text-anchor="middle" x="108.8097" y="-243.5013" font-family="Times,serif" font-size="14.00" fill="#000000">google_books_service</text>
</g>
<!-- facades&#45;&gt;google_books_service -->
<g id="edge8" class="edge">
<title>facades-&gt;google_books_service</title>
<path fill="none" stroke="#142541" d="M328.0151,-397.4025C283.2576,-366.8365 193.3161,-305.413 143.6843,-271.5181"/>
<polygon fill="#142541" stroke="#142541" points="145.4308,-268.4726 135.1989,-265.7232 141.4831,-274.2532 145.4308,-268.4726"/>
</g>
<!-- itunes_service -->
<g id="node3" class="node">
<title>itunes_service</title>
<polygon fill="none" stroke="#ff9ee5" points="326.8897,-265.7013 230.7297,-265.7013 230.7297,-229.7013 326.8897,-229.7013 326.8897,-265.7013"/>
<text text-anchor="middle" x="278.8097" y="-243.5013" font-family="Times,serif" font-size="14.00" fill="#000000">itunes_service</text>
</g>
<!-- facades&#45;&gt;itunes_service -->
<g id="edge1" class="edge">
<title>facades-&gt;itunes_service</title>
<path fill="none" stroke="#ff9ee5" d="M346.5317,-397.4025C333.1909,-367.9123 306.8561,-309.6986 291.2482,-275.1969"/>
<polygon fill="#ff9ee5" stroke="#ff9ee5" points="294.2731,-273.3917 286.9625,-265.7232 287.8953,-276.2769 294.2731,-273.3917"/>
</g>
<!-- moviedb_service -->
<g id="node4" class="node">
<title>moviedb_service</title>
<polygon fill="none" stroke="#2b9da5" points="486.4457,-265.7013 375.1737,-265.7013 375.1737,-229.7013 486.4457,-229.7013 486.4457,-265.7013"/>
<text text-anchor="middle" x="430.8097" y="-243.5013" font-family="Times,serif" font-size="14.00" fill="#000000">moviedb_service</text>
</g>
<!-- facades&#45;&gt;moviedb_service -->
<g id="edge7" class="edge">
<title>facades-&gt;moviedb_service</title>
<path fill="none" stroke="#142541" d="M363.0877,-397.4025C376.4285,-367.9123 402.7633,-309.6986 418.3712,-275.1969"/>
<polygon fill="#142541" stroke="#142541" points="421.7241,-276.2769 422.6569,-265.7232 415.3463,-273.3917 421.7241,-276.2769"/>
</g>
<!-- next_database_service -->
<g id="node6" class="node">
<title>next_database_service</title>
<polygon fill="none" stroke="#142541" points="682.7481,-265.7013 540.8713,-265.7013 540.8713,-229.7013 682.7481,-229.7013 682.7481,-265.7013"/>
<text text-anchor="middle" x="611.8097" y="-243.5013" font-family="Times,serif" font-size="14.00" fill="#000000">next_database_service</text>
</g>
<!-- facades&#45;&gt;next_database_service -->
<g id="edge2" class="edge">
<title>facades-&gt;next_database_service</title>
<path fill="none" stroke="#142541" d="M382.8024,-397.4025C429.6581,-366.7732 523.9138,-305.1585 575.6971,-271.308"/>
<polygon fill="#142541" stroke="#142541" points="577.7853,-274.1245 584.2405,-265.7232 573.9551,-268.2653 577.7853,-274.1245"/>
</g>
<!-- rest_service -->
<g id="node7" class="node">
<title>rest_service</title>
<polygon fill="none" stroke="#685b03" points="320.1598,-97.7013 237.4596,-97.7013 237.4596,-61.7013 320.1598,-61.7013 320.1598,-97.7013"/>
<text text-anchor="middle" x="278.8097" y="-75.5013" font-family="Times,serif" font-size="14.00" fill="#000000">rest_service</text>
</g>
<!-- google_books_service&#45;&gt;rest_service -->
<g id="edge5" class="edge">
<title>google_books_service-&gt;rest_service</title>
<path fill="none" stroke="#685b03" d="M127.3263,-229.4025C157.808,-199.2795 218.6159,-139.1869 253.2007,-105.009"/>
<polygon fill="#685b03" stroke="#685b03" points="255.9206,-107.2418 260.5732,-97.7232 251.0002,-102.2629 255.9206,-107.2418"/>
</g>
<!-- itunes_service&#45;&gt;rest_service -->
<g id="edge3" class="edge">
<title>itunes_service-&gt;rest_service</title>
<path fill="none" stroke="#685b03" d="M278.8097,-229.4025C278.8097,-200.1654 278.8097,-142.6958 278.8097,-108.0905"/>
<polygon fill="#685b03" stroke="#685b03" points="282.3098,-107.7232 278.8097,-97.7232 275.3098,-107.7232 282.3098,-107.7232"/>
</g>
<!-- moviedb_service&#45;&gt;rest_service -->
<g id="edge6" class="edge">
<title>moviedb_service-&gt;rest_service</title>
<path fill="none" stroke="#685b03" d="M414.2537,-229.4025C387.114,-199.406 333.0864,-139.6913 302.0981,-105.4412"/>
<polygon fill="#685b03" stroke="#685b03" points="304.4198,-102.7904 295.1152,-97.7232 299.229,-107.4868 304.4198,-102.7904"/>
</g>
<!-- next_app -->
<g id="node5" class="node">
<title>next_app</title>
<polygon fill="none" stroke="#e40a75" points="388.6303,-602.7013 320.9891,-602.7013 320.9891,-566.7013 388.6303,-566.7013 388.6303,-602.7013"/>
<text text-anchor="middle" x="354.8097" y="-580.5013" font-family="Times,serif" font-size="14.00" fill="#000000">next_app</text>
</g>
<!-- next_app&#45;&gt;facades -->
<g id="edge4" class="edge">
<title>next_app-&gt;facades</title>
<path fill="none" stroke="#4affae" d="M354.8097,-566.6153C354.8097,-537.2142 354.8097,-478.8346 354.8097,-443.9325"/>
<polygon fill="#4affae" stroke="#4affae" points="358.3098,-443.9126 354.8097,-433.9127 351.3098,-443.9127 358.3098,-443.9126"/>
</g>
</g>
</svg>